<?xml version="1.0" encoding="UTF-8"?>
<svg id="uuid-6c7d87e5-194e-4b7c-a0bd-275db2f32ee5" data-name="Layer 2" xmlns="http://www.w3.org/2000/svg" viewBox="0 0 564 85.11">
  <g id="uuid-f0e9ef7e-46c1-4f49-83eb-53e2eb6ef096" data-name="Layer 1">
    <rect width="564" height="85.11" fill="#59277c"/>
    <g>
      <path d="m356.25,78.42h.75v.75-.75q.75,0,.75.75h0c-3.75,3-10.5,2.25-14.25,2.25-6.75.75-12.75,1.5-18.75,1.5-1.5-.75-22.5,2.25-19.5-3,8.25-.75,16.5-.75,24.75-1.5,9,0,17.25-1.5,26.25,0h0Z" fill="#009fe3"/>
      <path d="m187.5,20.67c-3.75-4.5-9.75-9.75-16.5-10.5-39-3-78.75-2.25-118.5-1.5-10.5.75-21,.75-32.25.75-1.5,0-3.75,0-4.5,2.25-.75,3,.75,6.75,2.25,9,.75,1.5,2.25,3,3,4.5l-13.5,2.25c-2.25.75-2.25,3.75-2.25,5.25.75,2.25,2.25,4.5,3.75,6,3.75,4.5,9.75,9,15.75,9,39.75-.75,79.5-1.5,119.25-1.5,11.25,0,22.5-.75,33.75-.75,6.75,0,3.75-7.5,1.5-10.5-.75-.75-1.5-2.25-3-3,3,0,6-.75,9-.75,2.25,0,3.75-.75,4.5-3s-1.5-5.25-2.25-7.5h0Z" fill="#e6007e"/>
      <path d="m20.25,27.42c0-6.75,5.25-12,12.75-12s12,4.5,12,12-4.5,12.75-12,12.75-12.75-5.25-12.75-12.75h0Zm17.25.75v-1.5c0-4.5-1.5-6.75-4.5-6.75s-4.5,2.25-4.5,6.75v1.5c0,5.25,1.5,7.5,4.5,7.5s4.5-2.25,4.5-7.5h0Z" fill="#ffed00"/>
      <path d="m54.75,24.42c.75-1.5,3-3,5.25-3,3.75,0,6,2.25,6,7.5v6q0,.75.75.75h.75v3.75h-9.75v-3.75h.75s.75,0,.75-.75v-6c0-2.25-.75-3-2.25-3s-2.25.75-2.25,3.75v5.25q0,.75.75.75h.75v3.75h-9.75v-3.75h.75s.75,0,.75-.75v-8.25q0-.75-.75-.75h-.75v-3.75h3.75c1.5,0,3.75,0,4.5-.75v3Z" fill="#ffed00"/>
      <path d="m75,31.92c0,3,1.5,3.75,3.75,3.75s3.75-.75,3.75-2.25l3.75,2.25c-1.5,2.25-3.75,4.5-9,4.5-6,0-9.75-3.75-9.75-9.75,0-5.25,3.75-9,9.75-9s9,3.75,9,9.75v.75h-11.25Zm0-3h4.5c0-3-.75-3.75-2.25-3.75s-2.25,1.5-2.25,3.75h0Z" fill="#ffed00"/>
      <path d="m98.25,39.42h-11.25v-3.75h1.5s.75,0,.75-.75v-14.25c0-.75-.75-.75-.75-.75h-1.5v-3.75h12c6.75,0,9.75,1.5,9.75,6,0,2.25-2.25,4.5-5.25,5.25,3.75,0,6,2.25,6,5.25,0,4.5-3,6.75-11.25,6.75h0Zm-.75-13.5c3,0,3.75-.75,3.75-3s-.75-3-3-3h-2.25v6h1.5Zm-1.5,9.75h2.25c2.25,0,3.75-.75,3.75-3,0-3-1.5-3.75-3.75-3.75h-2.25v6.75Z" fill="#ffed00"/>
      <path d="m117,25.17v1.5c0,1.5-1.5,3-3,3-2.25,0-3.75-1.5-3.75-3,0-3.75,3.75-5.25,9-5.25,6,0,8.25,1.5,8.25,6v7.5c0,.75.75.75.75.75h1.5v3.75h-7.5c-.75-.75-.75-1.5-1.5-3-.75,2.25-3,3.75-5.25,3.75-3.75,0-5.25-2.25-5.25-5.25,0-4.5,6-5.25,10.5-6v-1.5c0-1.5-.75-2.25-2.25-2.25h-1.5Zm3.75,7.5v-1.5c-2.25.75-4.5.75-4.5,3,0,1.5.75,1.5,2.25,1.5s2.25-.75,2.25-3h0Z" fill="#ffed00"/>
      <path d="m138.75,24.42c.75-1.5,3-3,5.25-3,3.75,0,6,2.25,6,7.5v6q0,.75.75.75h.75v3.75h-9.75v-3.75h.75s.75,0,.75-.75v-6c0-2.25-.75-3-2.25-3s-2.25.75-2.25,3.75v5.25q0,.75.75.75h.75v3.75h-10.5v-3.75h1.5s.75,0,.75-.75v-8.25c0-.75-.75-.75-.75-.75h-1.5v-3.75h4.5c1.5,0,3,0,4.5-.75v3Z" fill="#ffed00"/>
      <path d="m151.5,35.67h1.5s.75,0,.75-.75v-14.25c0-.75-.75-.75-.75-.75h-1.5v-3.75h4.5c2.25,0,3.75,0,4.5-.75v15l3.75-3.75c.75,0,0-.75,0-.75h-1.5v-3.75h9.75v3.75h-1.5q-.75,0-1.5.75l-2.25,1.5,4.5,6.75c0,.75.75.75.75.75h.75v3.75h-9.75v-3.75h0q.75,0,.75-.75l-1.5-3-2.25,2.25v.75q0,.75.75.75h.75v3.75h-10.5v-3.75Z" fill="#ffed00"/>
      <path d="m189.75,35.67h.75c.75,0,1.5,0,1.5-.75v-14.25c0-.75-.75-.75-1.5-.75h-.75v-3.75h12c8.25,0,12,3.75,12,12,0,7.5-3.75,11.25-12.75,11.25h-11.25v-3.75Zm12,0c3,0,4.5-2.25,4.5-6.75v-1.5c0-5.25-1.5-7.5-4.5-7.5h-2.25v15.75h2.25Z" fill="#fff"/>
      <path d="m215.25,35.67h.75q.75,0,.75-.75v-7.5q0-1.5-.75-1.5h-.75v-3.75h8.25v12.75q0,.75.75.75h.75v3.75h-9.75v-3.75Zm1.5-18c0-1.5.75-3,3-3s3.75,1.5,3.75,3c0,2.25-1.5,3.75-3.75,3.75s-3-1.5-3-3.75h0Z" fill="#fff"/>
      <path d="m225.75,43.17c0-1.5.75-2.25,3.75-3-2.25-.75-3-2.25-3-3.75,0-2.25.75-3.75,3-4.5-1.5-.75-2.25-2.25-2.25-3.75,0-3.75,3-6.75,8.25-6.75,2.25,0,3.75.75,5.25,1.5.75-2.25,1.5-3,3.75-3,1.5,0,2.25.75,2.25,2.25s-.75,2.25-2.25,2.25c-.75,0-1.5,0-1.5-.75h-.75c1.5,1.5,2.25,2.25,2.25,3.75,0,4.5-3.75,6-9,6h-3.75c-.75,0-1.5,0-1.5.75s.75.75,2.25.75h7.5c4.5,0,6,2.25,6,5.25,0,3.75-3,6-10.5,6s-9.75-.75-9.75-3h0Zm6.75-2.25c-1.5,0-2.25.75-2.25,1.5,0,1.5,1.5,1.5,5.25,1.5,4.5,0,6-.75,6-1.5,0-1.5-.75-1.5-3-1.5h-6Zm5.25-12.75v-.75c0-1.5-.75-2.25-2.25-2.25s-2.25.75-2.25,2.25v.75c0,1.5.75,2.25,2.25,2.25s2.25-.75,2.25-2.25h0Z" fill="#fff"/>
      <path d="m247.5,35.67h.75s.75,0,.75-.75v-7.5c0-1.5-.75-1.5-.75-1.5h-.75v-3.75h8.25v12.75q0,.75.75.75h.75v3.75h-9.75v-3.75Zm.75-18c0-1.5,1.5-3,3.75-3s3.75,1.5,3.75,3c0,2.25-1.5,3.75-3.75,3.75s-3.75-1.5-3.75-3.75h0Z" fill="#fff"/>
      <path d="m259.5,34.17v-8.25h-2.25v-3h.75c1.5-.75,3-1.5,3-3l.75-3h4.5v5.25h2.25v3.75h-2.25v8.25q0,1.5,1.5,1.5h1.5v3.75c-.75,0-2.25.75-3.75.75-4.5,0-6-2.25-6-6h0Z" fill="#fff"/>
      <path d="m276.75,25.17q.75.75.75,1.5c0,1.5-1.5,3-3.75,3s-3-1.5-3-3c0-3,3-5.25,9-5.25s8.25,2.25,8.25,6.75v6.75q0,.75.75.75h.75v3.75h-6.75c-.75-.75-1.5-1.5-1.5-2.25-.75,1.5-3,3-6,3s-5.25-2.25-5.25-4.5c0-5.25,6-6,11.25-6.75v-.75c0-2.25-.75-3-3-3h-1.5Zm4.5,7.5v-1.5c-2.25.75-4.5,1.5-4.5,3s.75,2.25,1.5,2.25c2.25,0,3-1.5,3-3.75h0Z" fill="#fff"/>
      <path d="m290.25,35.67h.75q.75,0,.75-.75v-14.25q0-.75-.75-.75h-.75v-3.75h3.75c2.25,0,3.75,0,4.5-.75v19.5c0,.75.75.75.75.75h.75v3.75h-9.75v-3.75Z" fill="#fff"/>
      <path d="m309.75,35.67h.75c.75,0,1.5,0,1.5-.75v-14.25c0-.75-.75-.75-1.5-.75h-.75v-3.75h12c8.25,0,12,3.75,12,12,0,7.5-3.75,11.25-12.75,11.25h-11.25v-3.75Zm12,0c3,0,4.5-2.25,4.5-6.75v-1.5c0-5.25-1.5-7.5-4.5-7.5h-3v15.75h3Z" fill="#fff"/>
      <path d="m342,25.17v1.5c0,1.5-1.5,3-3,3-2.25,0-3.75-1.5-3.75-3,0-3,3-5.25,9-5.25s8.25,2.25,8.25,6.75v6.75c0,.75.75.75.75.75h.75v3.75h-6.75c-.75-.75-.75-1.5-1.5-2.25-.75,1.5-3,3-5.25,3-3.75,0-5.25-2.25-5.25-4.5,0-5.25,6-6,10.5-6.75v-.75c0-2.25-.75-3-2.25-3h-1.5Zm3.75,7.5v-1.5c-2.25.75-4.5,1.5-4.5,3s.75,2.25,1.5,2.25c2.25,0,3-1.5,3-3.75h0Z" fill="#fff"/>
      <path d="m356.25,34.17v-8.25h-2.25v-3h.75c1.5-.75,3-1.5,3-3l.75-3h4.5v5.25h3v3.75h-3v8.25c0,1.5.75,1.5,1.5,1.5h1.5v3.75c-.75,0-2.25.75-3.75.75-4.5,0-6-2.25-6-6h0Z" fill="#fff"/>
      <path d="m374.25,25.17v1.5c0,1.5-1.5,3-3,3-2.25,0-3.75-1.5-3.75-3,0-3,3-5.25,9-5.25s8.25,2.25,8.25,6.75v6.75q0,.75.75.75h.75v3.75h-6.75c-.75-.75-.75-1.5-1.5-2.25-.75,1.5-3,3-6,3s-5.25-2.25-5.25-4.5c0-5.25,6-6,11.25-6.75v-.75c0-2.25-.75-3-3-3h-.75Zm3.75,7.5v-1.5c-2.25.75-4.5,1.5-4.5,3s.75,2.25,1.5,2.25c2.25,0,3-1.5,3-3.75h0Z" fill="#fff"/>
      <path d="m395.25,28.17c0-7.5,4.5-12.75,11.25-12.75,3,0,5.25,1.5,6.75,3.75l.75-3h3.75v9h-6c0-3-1.5-4.5-3.75-4.5-3,0-4.5,1.5-4.5,6.75v.75c0,5.25,1.5,7.5,4.5,7.5s4.5-1.5,4.5-5.25l5.25,1.5c0,4.5-3,8.25-10.5,8.25s-12-4.5-12-12h0Z" fill="#fff"/>
      <path d="m418.5,31.17c0-6,3.75-9.75,9.75-9.75s9.75,3.75,9.75,9.75c0,5.25-3.75,9-9.75,9s-9.75-3.75-9.75-9h0Zm12.75,0v-.75c0-3.75-.75-5.25-3-5.25-1.5,0-3,1.5-3,5.25v.75c0,3.75,1.5,5.25,3,5.25,2.25,0,3-1.5,3-5.25h0Z" fill="#fff"/>
      <path d="m438.75,35.67h.75q.75,0,.75-.75v-14.25q0-.75-.75-.75h-.75v-3.75h3.75c2.25,0,3.75,0,4.5-.75v19.5q0,.75.75.75h.75v3.75h-9.75v-3.75Z" fill="#fff"/>
      <path d="m449.25,35.67h1.5s.75,0,.75-.75v-14.25c0-.75-.75-.75-.75-.75h-1.5v-3.75h4.5c1.5,0,3.75,0,4.5-.75v19.5q0,.75.75.75h.75v3.75h-10.5v-3.75Z" fill="#fff"/>
      <path d="m467.25,31.92c0,3,1.5,3.75,3.75,3.75s3.75-.75,3.75-2.25l3.75,2.25c-1.5,2.25-3.75,4.5-9,4.5-6,0-9-3.75-9-9,0-6,3-9.75,9-9.75s9,3.75,9,9.75v.75h-11.25Zm0-3h4.5c0-2.25-.75-3.75-2.25-3.75s-2.25,1.5-2.25,3.75h0Z" fill="#fff"/>
      <path d="m492.75,25.92c-.75-.75-1.5-.75-3-.75-2.25,0-3.75,1.5-3.75,5.25v.75c0,3,1.5,4.5,3.75,4.5s3-.75,3.75-2.25l3.75,1.5c-1.5,3-3.75,5.25-8.25,5.25-6,0-9.75-3.75-9.75-9,0-6,3.75-9.75,9.75-9.75,5.25,0,8.25,2.25,8.25,6,0,3-1.5,4.5-3.75,4.5s-3.75-1.5-3.75-3,1.5-2.25,3-3h0Z" fill="#fff"/>
      <path d="m499.5,34.17v-8.25h-2.25v-3h.75c1.5-.75,3-1.5,3-3l.75-3h4.5v5.25h3v3.75h-3v8.25c0,1.5.75,1.5,1.5,1.5h1.5v3.75c-.75,0-2.25.75-3.75.75-4.5,0-6-2.25-6-6h0Z" fill="#fff"/>
      <path d="m510.75,35.67h.75q.75,0,.75-.75v-7.5q0-1.5-.75-1.5h-.75v-3.75h8.25v12.75q0,.75.75.75h.75v3.75h-9.75v-3.75Zm.75-18c0-1.5,1.5-3,3.75-3s3.75,1.5,3.75,3c0,2.25-1.5,3.75-3.75,3.75s-3.75-1.5-3.75-3.75h0Z" fill="#fff"/>
      <path d="m521.25,31.17c0-6,4.5-9.75,9.75-9.75,6,0,9.75,3.75,9.75,9.75,0,5.25-3.75,9-9.75,9s-9.75-3.75-9.75-9h0Zm12.75,0v-.75c0-3.75-.75-5.25-3-5.25-1.5,0-3,1.5-3,5.25v.75c0,3.75,1.5,5.25,3,5.25,2.25,0,3-1.5,3-5.25h0Z" fill="#fff"/>
      <path d="m549.75,25.17c1.5-2.25,3-3.75,6-3.75,3.75,0,5.25,2.25,5.25,7.5v6c0,.75.75.75.75.75h1.5v3.75h-10.5v-3.75h.75q.75,0,.75-.75v-6c0-2.25-.75-3-1.5-3-2.25,0-3,1.5-3,3.75v5.25c0,.75.75.75.75.75h.75v3.75h-9.75v-3.75h.75q.75,0,.75-.75v-7.5q0-1.5-.75-1.5h-.75v-3.75h8.25v3Z" fill="#fff"/>
      <path d="m131.25,66.42c0-4.5,3-8.25,7.5-8.25,2.25,0,3.75.75,4.5,2.25l.75-1.5h2.25v6h-3.75c-.75-2.25-1.5-3.75-3-3.75-2.25,0-3,1.5-3,5.25v.75c0,3.75.75,4.5,3,4.5s3-.75,3-3l3.75.75c0,3-2.25,5.25-6.75,5.25-5.25,0-8.25-3-8.25-8.25h0Z" fill="#fff"/>
      <path d="m155.25,74.67h-8.25v-2.25h1.5v-11.25h-1.5v-2.25h8.25c5.25,0,6.75.75,6.75,3.75,0,2.25-1.5,3-3.75,3.75,3,0,4.5,1.5,4.5,3.75,0,3-2.25,4.5-7.5,4.5h0Zm-.75-9c1.5,0,2.25-.75,2.25-2.25s0-2.25-1.5-2.25h-1.5v4.5h.75Zm-.75,6.75h1.5c1.5,0,2.25-.75,2.25-2.25,0-2.25-.75-3-2.25-3h-1.5v5.25Z" fill="#fff"/>
      <path d="m172.5,69.42h-4.5l-.75,2.25s0,.75.75.75h.75v2.25h-6v-2.25h.75c.75,0,.75-.75.75-.75l5.25-12.75h4.5l4.5,12.75.75.75h.75v2.25h-7.5v-2.25h0c.75,0,.75-.75.75-.75l-.75-2.25Zm-3.75-2.25h3l-1.5-4.5-1.5,4.5Z" fill="#fff"/>
      <path d="m196.5,69.42h-4.5l-.75,2.25s0,.75.75.75h.75v2.25h-6v-2.25h0c.75,0,.75-.75,1.5-.75l4.5-12.75h5.25l4.5,12.75s0,.75.75.75h.75v2.25h-8.25v-2.25h.75c.75,0,.75-.75.75-.75l-.75-2.25Zm-3.75-2.25h3l-1.5-4.5-1.5,4.5Z" fill="#fff"/>
      <path d="m210,64.92c.75-1.5,2.25-2.25,3.75-2.25,2.25,0,3.75,1.5,3.75,4.5v4.5q0,.75.75.75h.75v2.25h-6.75v-2.25h0q.75,0,.75-.75v-4.5c0-1.5-.75-1.5-1.5-1.5s-1.5.75-1.5,2.25v3.75q0,.75.75.75h0v2.25h-6.75v-2.25h.75q.75,0,.75-.75v-5.25q0-.75-.75-.75h-.75v-3h6v2.25Z" fill="#fff"/>
      <path d="m224.25,64.92v.75c0,1.5-.75,2.25-2.25,2.25s-2.25-.75-2.25-2.25c0-2.25,2.25-3,6-3s6,.75,6,3.75v6h.75v2.25h-4.5l-1.5-1.5c0,.75-2.25,1.5-3.75,1.5-2.25,0-3.75-.75-3.75-3,0-3,4.5-3.75,7.5-4.5v-.75c0-.75,0-1.5-1.5-1.5h-.75Zm2.25,5.25v-.75c-1.5,0-3,0-3,1.5,0,.75.75,1.5,1.5,1.5s1.5-.75,1.5-2.25h0Z" fill="#fff"/>
      <path d="m233.25,72.42h0q.75,0,.75-.75v-9.75q0-.75-.75-.75h-.75v-2.25h3c1.5,0,3-.75,3-.75v13.5c0,.75.75.75.75.75h.75v2.25h-6.75v-2.25Z" fill="#fff"/>
      <path d="m245.25,74.67l-3.75-8.25-.75-.75h-.75v-3h6.75v3h0q-.75,0-.75.75l1.5,3.75,1.5-3.75c.75-.75,0-.75,0-.75h-.75v-3h5.25v3h-.75l-.75.75-3,7.5c-1.5,3.75-2.25,5.25-5.25,5.25s-3.75-1.5-3.75-3,.75-2.25,2.25-2.25,2.25,1.5,1.5,3c.75-.75,1.5-1.5,1.5-2.25h0Z" fill="#fff"/>
      <path d="m255.75,70.92v-5.25h-1.5v-2.25h.75c.75-.75,1.5-.75,1.5-2.25l.75-1.5h3v3h1.5v3h-1.5v5.25c0,.75,0,1.5.75,1.5h1.5v2.25h-3c-3,0-3.75-.75-3.75-3.75h0Z" fill="#fff"/>
      <path d="m263.25,72.42h0c.75,0,.75-.75.75-.75v-5.25q0-.75-.75-.75h0v-3h5.25v9l.75.75h.75v2.25h-6.75v-2.25Zm.75-12.75c0-.75.75-2.25,2.25-2.25s2.25,1.5,2.25,2.25c0,1.5-.75,2.25-2.25,2.25s-2.25-.75-2.25-2.25h0Z" fill="#fff"/>
      <path d="m279.75,65.67c-.75-.75-1.5-.75-2.25-.75-1.5,0-2.25.75-2.25,3v.75c0,2.25.75,3.75,2.25,3.75s2.25-.75,3-2.25l2.25,1.5c-.75,2.25-2.25,3-5.25,3-4.5,0-6.75-2.25-6.75-6s2.25-6,6-6,6,1.5,6,3.75c0,1.5-.75,3-2.25,3s-3-.75-3-2.25c0-.75.75-1.5,2.25-1.5h0Z" fill="#fff"/>
      <path d="m283.5,70.92h3v1.5h1.5c.75,0,1.5,0,1.5-.75s-.75-.75-2.25-1.5c-2.25,0-3.75-.75-3.75-3.75,0-2.25,1.5-3.75,5.25-3.75,2.25,0,3.75,0,4.5.75v3h-3v-1.5h-1.5c-.75,0-1.5,0-1.5.75s.75.75,2.25,1.5c2.25,0,4.5.75,4.5,3.75,0,2.25-2.25,3.75-6,3.75-1.5,0-3.75,0-4.5-.75v-3Z" fill="#fff"/>
      <path d="m297,73.92h0c-1.5,0-2.25-.75-2.25-1.5,0-1.5.75-2.25,2.25-2.25s3,.75,3,3-1.5,3.75-3.75,3.75h-1.5v-2.25h.75c.75,0,1.5,0,1.5-.75h0Z" fill="#fff"/>
      <path d="m318,67.17c2.25,0,3,1.5,3,3.75,0,.75,0,1.5.75,1.5h.75v2.25h-3.75c-2.25,0-3-2.25-3-4.5,0-1.5-.75-2.25-2.25-2.25h-.75v3.75s0,.75.75.75h.75v2.25h-8.25v-2.25h1.5v-11.25h-1.5v-2.25h9.75c3.75,0,5.25.75,5.25,4.5,0,1.5-.75,3-3,3.75h0Zm-5.25-1.5h.75c2.25,0,3-.75,3-2.25s-.75-2.25-2.25-2.25h-1.5v4.5Z" fill="#fff"/>
      <path d="m332.25,69.42h-4.5v2.25c-.75,0,0,.75,0,.75h.75v2.25h-6v-2.25h.75c.75,0,.75-.75.75-.75l5.25-12.75h4.5l4.5,12.75c.75,0,.75.75,1.5.75h0v2.25h-7.5v-2.25h.75s.75-.75,0-.75l-.75-2.25Zm-3.75-2.25h3.75l-2.25-4.5-1.5,4.5Z" fill="#fff"/>
      <path d="m340.5,72.42h.75c.75,0,.75-.75.75-.75v-9.75q0-.75-.75-.75h-.75v-2.25h8.25c6,0,8.25,2.25,8.25,7.5s-2.25,8.25-8.25,8.25h-8.25v-2.25Zm8.25,0c2.25,0,3-1.5,3-5.25v-.75c0-3.75-.75-5.25-3-5.25h-1.5v11.25h1.5Z" fill="#fff"/>
      <path d="m363.75,70.17c0-3,1.5-4.5,3.75-5.25,0-.75-.75-1.5-.75-2.25,0-2.25,2.25-4.5,6-4.5,3,0,4.5,1.5,4.5,3.75s-1.5,3-3.75,3.75l2.25,3.75,2.25-2.25h-1.5v-2.25h6v2.25h-1.5c-.75,1.5-2.25,2.25-3.75,3.75q.75.75,1.5.75t.75-.75v-.75h3v.75c0,3-1.5,3.75-4.5,3.75-1.5,0-2.25,0-3.75-1.5-1.5,1.5-3,1.5-4.5,1.5-3.75,0-6-1.5-6-4.5h0Zm9,1.5l-.75-.75-2.25-3c0-.75-.75-.75-.75-.75-.75,0-.75.75-.75,2.25s.75,3,2.25,3c.75,0,1.5,0,2.25-.75h0Zm-.75-7.5c1.5,0,2.25-.75,2.25-2.25,0-.75-.75-1.5-1.5-1.5s-1.5.75-1.5,1.5,0,1.5.75,2.25h0Z" fill="#fff"/>
      <path d="m389.25,72.42h.75c.75,0,.75-.75.75-.75v-9.75q0-.75-.75-.75h-.75v-2.25h8.25l2.25,7.5,2.25-7.5h8.25v2.25h-.75q-.75,0-.75.75v9.75s0,.75.75.75h.75v2.25h-7.5v-2.25h.75l.75-.75v-9.75l-3.75,12.75h-3l-3.75-12.75v9.75s0,.75.75.75h.75v2.25h-6v-2.25Z" fill="#fff"/>
      <path d="m420.75,69.42h-4.5l-.75,2.25s0,.75.75.75h.75v2.25h-6v-2.25h.75c.75,0,.75-.75.75-.75l4.5-12.75h5.25l4.5,12.75.75.75h.75v2.25h-8.25v-2.25h.75c.75,0,.75-.75.75-.75l-.75-2.25Zm-3.75-2.25h3l-1.5-4.5-1.5,4.5Z" fill="#fff"/>
      <path d="m430.5,72.42h.75c.75,0,.75-.75.75-.75v-10.5h0c-1.5,0-2.25,0-2.25.75l-.75,1.5h-2.25v-4.5h15v4.5h-2.25v-1.5q-.75-.75-2.25-.75h-.75v10.5s0,.75.75.75h.75v2.25h-7.5v-2.25Z" fill="#fff"/>
      <path d="m445.5,72.42h1.5v-11.25h0q-1.5,0-2.25.75v1.5h-2.25v-4.5h15v4.5h-2.25l-.75-1.5c0-.75-.75-.75-1.5-.75h-.75v10.5s0,.75.75.75h.75v2.25h-8.25v-2.25Z" fill="#fff"/>
    </g>
  </g>
</svg>